# xmcd CD database file
#
# Track frame offsets:
#	150
#	18716
#	39666
#	57383
#	73791
#	90386
#	108218
#	125369
#	144248
#	162429
#	177550
#	195311
#	214327
#	231373
#
# Disc length: 3299 seconds
#
# Revision: 1
# Processed by: cddbd v1.5.2PL0 Copyright (c) Steve Scherf et al.
# Submitted via: NeoAudio 9.9.9
#
DISCID=c80ce10e
DTITLE=Various Artist - Look Thung Super Hits 4
DYEAR=2005
DGENRE=Country
TTITLE0=Tua hai kid hord - Tai Orrathai
TTITLE1=Hai kum-lung jai tua eng - Catleeya Marasri
TTITLE2=Dao jai fah - Mike Piromporn
TTITLE3=Jao bao nai kaaw luer - Thana Pachok
TTITLE4=Kor jorng nai jai - Tukkatan Chollada
TTITLE5=Chaeng hua jai - Koong Suthirath
TTITLE6=Khon chue duen - Sittiporn Soontorrapoj
TTITLE7=Bow daeng salang jai - Pamela Bowden
TTITLE8=Khon oak tung nung hua toh - Peter Sareewong
TTITLE9=Khon kaen stand up - Gift Bussara
TTITLE10=Karuna yah pluer jai - Siriporn Umphaipong
TTITLE11=Chun klua lhuk see - Apaporn Nakornsawan
TTITLE12=Worn kor hai ror see pee - Kittisak Chaichana
TTITLE13=Nuk rean lhung hong - Bew Pongpipat
EXTD=YEAR: 2005
EXTT0=
EXTT1=
EXTT2=
EXTT3=
EXTT4=
EXTT5=
EXTT6=
EXTT7=
EXTT8=
EXTT9=
EXTT10=
EXTT11=
EXTT12=
EXTT13=
PLAYORDER=
